<svg xmlns="http://www.w3.org/2000/svg" xmlns:xlink="http://www.w3.org/1999/xlink" version="1.1" width="317.300274076982" height="66.3217540926851" viewBox="0 0 3151.300274076982 968.3217540926851">
			
			<g transform="scale(7.565013703849102) translate(10, 10)">
				<defs id="SvgjsDefs7980"/><g id="SvgjsG7981" transform="matrix(1,0,0,1,0,0)" fill="#2b3595"><rect width="79" height="108" rx="8"/></g><g id="SvgjsG7982"  transform="matrix(0.389271042275649,0,0,0.389271042275649,17.143208783356787,12.197248569862886)" fill="#ffffff"><g xmlns="http://www.w3.org/2000/svg"><path d="M36.341,34.05c-0.173,2.819,0.464,5.84,1.936,8.928c3.143,6.59,9.669,12.561,15.875,14.517   c1.475,0.467,2.879,0.672,4.223,0.672c4.822,0,8.847-2.661,12.723-5.455c2.871,1.243,15.065,6.776,25.548,15.339   c0.062,0.136,0.174,0.225,0.319,0.259c0.013,0.011,0.027,0.022,0.04,0.033c0,0-0.007-0.018-0.008-0.022   c0.025,0.004,0.043,0.024,0.068,0.024c0.222,0,0.414-0.151,0.467-0.365c0.76-3.02-1.065-6.899-3.263-9.17   c-1.728-1.778-3.719-3.858-5.503-6.013l-0.711-0.845c-2.672-3.163-6.711-7.945-4.761-11.398c2.544-4.488,2.763-11.383,0.553-17.565   c-2.356-6.605-7.095-11.575-13.339-13.995C67.441,7.802,64.302,7.2,61.186,7.2c-9.3,0-15.386,5.23-15.653,5.465   c-0.056,0.055-5.785,5.403-12.179,5.403c-0.459,0-0.918-0.028-1.362-0.083c-7.189-0.892-19.925-7.132-23.674-9.686   C8.204,8.211,8.061,8.101,7.858,8.101c-0.26,0-0.512,0.269-0.519,0.531C7.335,8.777,7.399,8.914,7.508,9.01   c0.028,0.024,0.055,0.046,0.083,0.07C8.501,10.536,19.077,26.987,36.341,34.05z M54.438,56.576   c-6.646-2.085-13.829-8.98-14.732-16.112c-0.369-2.913,0.053-5.897,1.123-8.621c0.026-0.066-2.71-1.679-2.713-1.746   c1.862,1.151,3.723,2.304,5.588,3.452c5.557,3.429,11.324,6.229,17.446,8.9c4.395,2.456,9.273,5.233,11.482,6.493   c0.198,0.268,0.455,0.505,0.834,0.674c-1.357,0.866-0.703,0.699-2.001,1.641C66.184,55.091,61.197,58.697,54.438,56.576z    M31.871,18.941c0.485,0.06,0.982,0.09,1.483,0.09c7.224,0,12.912-4.795,19.194-7.645c2.785-1.263,5.794-1.994,8.861-1.994   c2.996,0,5.149,0.101,8.107,1.247c5.977,2.317,10.523,6.239,12.784,12.577c0.493,1.38,0.687,2.73,0.71,4.063   c-0.355,4.372-2.098,10.082-8.768,10.23c-7.031,0.156,2.264,0.051,8.086,6.871c1.08,3.047,3.013,5.849,4.993,8.191l0.7,0.837   c1.81,2.183,3.35,4.499,5.089,6.29c0.649,0.672,1.033,1.106,1.395,1.593c-0.667-0.718-1.409-1.268-2.404-2.388   c-1.78-2.002-3.692-3.786-5.687-5.297c-4.701-3.568-10.09-5.901-15.209-7.987c-9.838-4.01-18.657-7.746-26.997-12.891   c-2.796-1.724-5.593-3.453-8.386-5.181c-3.609-2.232-7.219-4.464-10.832-6.686c-0.803-0.494-1.605-1.008-2.409-1.534l-4.017-2.763   c-2.061-1.488-4.184-3.12-6.443-4.955C17.689,14.513,26.368,18.258,31.871,18.941z"/><path d="M52.249,45.361c-0.884,0.041-1.685,0.262-2.076,0.832c-0.906,1.32,0.928,2.064,0.928,2.064   c-0.878,0.594-0.513,1.934,0.671,2.249c1.617,0.43,3.353-0.768,4.17-1.448c0.677-0.563,1.121-1.173,1.729-1.724   c-0.115-0.036-0.227-0.038-0.351-0.034C55.332,47.361,54.58,45.253,52.249,45.361z"/><path d="M100.194,145.682c-5.68-5.764-12.639-10.128-15.459-18.173c-2.271-6.481-0.409-13.42,1.63-19.713   c0.998-3.082,2.174-6.123,3.427-9.132c2.262-3.178,3.606-7.055,3.606-11.252c0-10.413-8.215-18.514-18.479-19.425   c-17.339-1.539-21.704,7.438-22.601,10.04c-0.488-1.449-1.503-2.718-1.989-3.247c-4.001-4.373-9.85-7.089-15.262-7.089   c-10.956,0-19.872,8.914-19.872,19.872c0,3.813,1.084,7.516,3.131,10.711c1.144,1.78,2.586,3.374,4.291,4.739   c0.723,0.578,1.385,1.016,2.025,1.442c1.502,0.995,2.687,1.782,3.722,3.777c1.076,2.074,1.886,4.605,2.398,7.518   c0.723,4.108,0.565,7.955-0.482,11.43c-1.058,3.528-2.544,7.405-4.117,11.509c-5.815,15.158-13.052,34.022-1.901,47.163   c2.386,2.808,6.504,4.806,10.862,6.921c7.358,3.57,14.964,7.26,14.389,15.145c-0.015,0.211,0.113,0.41,0.312,0.486   c0.056,0.019,0.113,0.03,0.169,0.03c0.147,0,0.294-0.068,0.384-0.192c0.028-0.037,1.049-1.389,2.698-3.369   c6.871-7.016,24.231-22.657,39.762-19.378c10.32,2.179,13.567-7.284,15.233-15.89C109.762,160.857,106.348,151.925,100.194,145.682   z M52.456,204.118c-0.796,0.953-1.48,1.796-1.958,2.4c0.901-1.138-1.203-6.018-1.758-7.099c-1.13-2.198-2.912-4.118-4.866-5.615   c-1.523-1.167-3.232-2.01-4.988-2.769c-3.384-1.462-6.944-2.607-9.692-5.137c-13.429-12.36-5.582-32.02-2.133-46.864   c0.999-4.299,3.075-8.015,4.144-11.577c1.084-3.624,1.257-7.62,0.504-11.874c-0.531-3.011-1.366-5.634-2.488-7.797   c-1.152-2.215,2.976-1.809,1.422-2.84c-0.621-0.412-6.736-2.136-7.425-2.687c-1.622-1.298-2.996-2.813-4.08-4.505   c-1.95-3.041-2.981-6.564-2.981-10.192c0-10.425,8.483-18.909,18.911-18.909c7.891,0.001,13.757,6.476,16.467,13.298   c1.419,3.572,2.143,7.267,1.017,11.016c-0.456,1.517-5.327,9.829-4.456,10.873c1.765,2.115,4.117,2.362,4.008,5.958   c-0.21,6.926-10.918,31.482,0,57.717C59.879,186.2,55.627,198.285,52.456,204.118z"/></g></g><g id="SvgjsG7983"  transform="matrix(0.7796689134812079,0,0,0.7796689134812079,98.22634519951401,71.20505575657185)" fill="#111111"><path d="M1.02 7.619999999999999 c0.02 1.18 0.02 11.2 0.02 12.02 c0 0.3 0.04 0.36 0.34 0.36 c0.68 0 0.68 0.02 1.36 0 c0.14 0 0.38 0 0.5 -0.06 c0.14 -0.06 0.06 -4.78 0.06 -5.04 c0 -0.28 0.56 -0.22 0.72 -0.22 c3.34 0 4.26 -2.4 4.26 -4.44 c0 -1.84 -0.36 -5.24 -4.52 -5.24 c-0.72 0 -1.46 0.02 -2.16 0.02 c-0.16 0 -0.36 -0.02 -0.5 0.08 c-0.16 0.12 -0.1 1.9 -0.08 2.52 z M3.32 11.74 c0 -0.44 -0.02 -3.06 0 -3.86 c0 -0.12 -0.02 -0.26 0 -0.4 c0.06 -0.22 0.32 -0.22 0.52 -0.2 c1.16 0.08 1.82 1.1 1.92 2.18 c0.08 0.78 -0.02 1.94 -0.58 2.56 c-0.4 0.42 -0.92 0.68 -1.6 0.68 c-0.14 0 -0.28 -0.16 -0.28 -0.3 c0 -0.22 0 -0.44 0.02 -0.66 z M10.299999999999999 15.9 l-0.02 0 c0 0.5 -0.02 1.02 0 1.54 c0.02 0.64 0.06 1.28 0.1 1.92 c0 0.22 0.06 0.28 0.26 0.32 c0.42 0.1 0.82 0.12 1.24 0.12 c1.08 -0.04 2.16 0.04 3.24 0 c0.44 -0.02 0.64 0.02 1.08 -0.06 c0.4 -0.08 0.54 -0.3 0.54 -0.9 c-0.04 -0.38 -0.02 -0.54 -0.02 -1 c0 -0.66 -0.46 -0.88 -0.86 -0.86 c-0.28 0.02 -1.62 -0.02 -2.16 -0.02 c-0.9 0.02 -0.76 0.14 -0.76 -0.8 c0 -0.76 0.02 -1.74 0.02 -2.52 c0 -0.42 0.04 -0.56 0.44 -0.56 l2.5 0 c0.4 0.06 0.68 -0.22 0.68 -0.64 s0.04 -0.44 0.04 -0.86 l-0.06 -0.6 c-0.04 -0.34 -0.16 -0.46 -0.5 -0.46 c-0.22 0 -0.44 0.02 -0.66 0.04 c-0.86 0.06 -1.26 -0.06 -2.1 0 c-0.28 0 -0.32 -0.04 -0.34 -0.3 c-0.08 -0.78 0 -1.64 0.08 -2.42 c0.02 -0.32 0.1 -0.38 0.4 -0.4 l2.82 -0.02 c0.38 -0.04 0.5 -0.02 0.48 -0.4 c-0.04 -0.58 0.02 -1.18 -0.04 -1.76 c-0.04 -0.32 -0.14 -0.38 -0.5 -0.38 c-0.6 0.02 -0.74 0.02 -1.34 0.06 c-0.6 0.02 -3 0.02 -3.58 0.02 c-0.84 0 -0.9 -0.06 -0.92 0.96 c-0.04 0.8 -0.02 1.62 -0.02 2.44 c0 1.4 -0.08 6.42 -0.04 7.54 z M21.220000000000002 18.5 c0 -0.52 0 -3.8 0.02 -4.06 c0.02 -0.06 0.06 -0.18 0.14 -0.18 s0.12 0.04 0.14 0.1 c0.8 1.56 1.5 3.12 2.22 4.64 c0.1 0.22 0.32 0.86 0.38 0.92 c0.08 0.12 0.22 0.08 0.34 0.08 l2.2 0.02 c0.26 0 0.32 -0.16 0.26 -0.38 c-0.16 -0.6 -1.3 -2.72 -1.56 -3.24 c-0.18 -0.4 -1.38 -2.72 -1.42 -2.9 c-0.04 -0.08 0.26 -0.22 0.3 -0.28 c0.96 -0.86 1.82 -1.74 2 -3.08 c0.2 -1.32 -0.1 -2.76 -0.96 -3.82 c-0.66 -0.78 -1.52 -1.24 -2.54 -1.3 c-0.62 -0.04 -1.22 0.02 -1.84 0 c-0.54 -0.02 -0.92 -0.02 -1.6 -0.02 c-0.32 0 -0.52 0.18 -0.54 0.52 l0 0.24 c-0.04 1.54 0 3.08 0.02 4.6 c0 2.32 -0.04 8.44 -0.04 9.32 c0 0.26 0.04 0.32 0.28 0.32 c0.14 0 0.3 0.02 0.44 0.02 c0.56 0 0.9 -0.02 1.48 -0.02 c0.44 0 0.28 -0.72 0.28 -1.5 z M21.220000000000002 10.7 l0.02 -2.02 c0.02 -0.3 -0.08 -0.9 0.2 -1.12 c0.38 -0.28 1.16 0 1.5 0.24 c1 0.68 0.92 2.36 0.38 3.3 c-0.26 0.44 -0.7 0.7 -1.2 0.84 c-0.3 0.08 -0.86 0.18 -0.88 -0.3 c0 -0.32 -0.02 -0.94 -0.02 -0.94 z M28.960000000000004 15.9 l-0.02 0 c0 0.5 -0.02 1.02 0 1.54 c0.02 0.64 0.04 1.28 0.08 1.92 c0.02 0.22 0.06 0.28 0.28 0.32 c0.4 0.1 0.82 0.12 1.24 0.12 c1.08 -0.04 1.08 -0.22 1.08 -0.96 c-0.04 -0.38 -0.02 -0.54 -0.02 -1 c0 -0.66 -0.02 -0.74 -0.02 -1.68 c0.02 -0.76 0.02 -1.74 0.02 -2.52 c0 -0.42 0.06 -0.56 0.44 -0.56 l2.92 0 c0.42 0.06 0.26 -0.22 0.26 -0.64 s0.06 -0.44 0.04 -0.86 c0 -0.2 -0.04 -0.4 -0.06 -0.6 c-0.04 -0.34 -0.16 -0.46 -0.5 -0.46 c-0.22 0 -0.02 0.02 -0.22 0.04 c-0.86 0.06 -1.68 -0.06 -2.54 0 c-0.28 0 -0.32 -0.04 -0.34 -0.3 c-0.06 -0.78 0 -1.64 0.08 -2.42 c0.04 -0.32 0.1 -0.38 0.4 -0.4 l2.82 -0.02 c0.4 -0.04 0.52 -0.02 0.48 -0.4 c-0.04 -0.58 0.04 -1.18 -0.04 -1.76 c-0.04 -0.32 -0.12 -0.38 -0.48 -0.38 c-0.6 0.02 -0.74 0.02 -1.34 0.06 c-0.6 0.02 -3.02 0.02 -3.6 0.02 c-0.82 0 -0.9 -0.06 -0.92 0.96 c-0.02 0.8 -0.02 1.62 -0.02 2.44 c0 1.4 -0.08 6.42 -0.02 7.54 z M37.400000000000006 15.9 l-0.02 0 c0 0.5 -0.02 1.02 0 1.54 c0.02 0.64 0.06 1.28 0.1 1.92 c0 0.22 0.06 0.28 0.26 0.32 c0.42 0.1 0.82 0.12 1.24 0.12 c1.08 -0.04 2.16 0.04 3.24 0 c0.44 -0.02 0.64 0.02 1.08 -0.06 c0.4 -0.08 0.54 -0.3 0.54 -0.9 c-0.04 -0.38 -0.02 -0.54 -0.02 -1 c0 -0.66 -0.46 -0.88 -0.86 -0.86 c-0.28 0.02 -1.62 -0.02 -2.16 -0.02 c-0.9 0.02 -0.76 0.14 -0.76 -0.8 c0 -0.76 0.02 -1.74 0.02 -2.52 c0 -0.42 0.04 -0.56 0.44 -0.56 l2.5 0 c0.4 0.06 0.68 -0.22 0.68 -0.64 s0.04 -0.44 0.04 -0.86 l-0.06 -0.6 c-0.04 -0.34 -0.16 -0.46 -0.5 -0.46 c-0.22 0 -0.44 0.02 -0.66 0.04 c-0.86 0.06 -1.26 -0.06 -2.1 0 c-0.28 0 -0.32 -0.04 -0.34 -0.3 c-0.08 -0.78 0 -1.64 0.08 -2.42 c0.02 -0.32 0.1 -0.38 0.4 -0.4 l2.82 -0.02 c0.38 -0.04 0.5 -0.02 0.48 -0.4 c-0.04 -0.58 0.02 -1.18 -0.04 -1.76 c-0.04 -0.32 -0.14 -0.38 -0.5 -0.38 c-0.6 0.02 -0.74 0.02 -1.34 0.06 c-0.6 0.02 -3 0.02 -3.58 0.02 c-0.84 0 -0.9 -0.06 -0.92 0.96 c-0.04 0.8 -0.02 1.62 -0.02 2.44 c0 1.4 -0.08 6.42 -0.04 7.54 z M53.74 7.359999999999999 c0.02 -0.66 0 -1.2 0 -1.84 c0 -0.74 -1.34 -0.66 -1.82 -0.64 c-2.14 0.14 -4.18 1.5 -5.16 3.36 c-0.28 0.54 -0.48 1.1 -0.62 1.68 c-0.34 1.36 -0.36 2.8 -0.2 4.18 c0.14 1.3 0.48 2.6 1.28 3.64 c1.38 1.82 3.92 2.46 6.1 2.12 c0.1 -0.02 0.2 -0.04 0.28 -0.1 c0.06 -0.04 0.12 -0.12 0.12 -0.2 l0.06 -1.14 c0.02 -0.36 0 -0.34 0 -0.7 c0 -0.48 -1 -0.12 -1.62 -0.12 c-0.6 0 -1.24 -0.02 -1.78 -0.3 c-0.96 -0.54 -1.5 -1.62 -1.8 -2.64 c-0.34 -1.1 -0.42 -2.28 -0.22 -3.4 c0.24 -1.46 0.94 -3.14 2.48 -3.64 c0.88 -0.3 1.82 -0.2 2.7 -0.1 c0.12 0.02 0.2 -0.06 0.2 -0.16 z M58.32 17.82 c0.02 0.62 0.02 1.24 0.04 1.86 c0 0.28 0.02 0.32 0.3 0.32 l1.8 0 c0.38 0 0.3 -0.64 0.28 -0.98 l0.06 -11.2 c0 -0.3 0.1 -0.4 0.5 -0.4 l1.76 0 c0.42 0 0.32 -0.72 0.32 -1.22 c0 -0.44 0.16 -1.2 -0.32 -1.2 c-0.34 0 -3.6 0 -4.94 0.02 c-0.66 0 -1.2 -0.02 -1.86 -0.02 c-0.5 0 -0.48 0.4 -0.48 1.28 c0 0.56 -0.02 1.12 0.46 1.12 c0.28 0 1.42 0 1.74 0.02 c0.2 0 0.34 0.06 0.38 0.28 c0 0.06 0.02 0.12 0.02 0.18 c0 1.44 -0.1 8.14 -0.06 9.94 z M70.42 15.9 l-0.02 0 c0 0.5 -0.02 1.02 0 1.54 c0.02 0.64 0.04 1.28 0.08 1.92 c0.02 0.22 0.06 0.28 0.28 0.32 c0.4 0.1 0.82 0.12 1.24 0.12 c1.08 -0.04 1.08 -0.22 1.08 -0.96 c-0.04 -0.38 -0.02 -0.54 -0.02 -1 c0 -0.66 -0.02 -0.74 -0.02 -1.68 c0.02 -0.76 0.02 -1.74 0.02 -2.52 c0 -0.42 0.06 -0.56 0.44 -0.56 l2.92 0 c0.42 0.06 0.26 -0.22 0.26 -0.64 s0.06 -0.44 0.04 -0.86 c0 -0.2 -0.04 -0.4 -0.06 -0.6 c-0.04 -0.34 -0.16 -0.46 -0.5 -0.46 c-0.22 0 -0.02 0.02 -0.22 0.04 c-0.86 0.06 -1.68 -0.06 -2.54 0 c-0.28 0 -0.32 -0.04 -0.34 -0.3 c-0.06 -0.78 0 -1.64 0.08 -2.42 c0.04 -0.32 0.1 -0.38 0.4 -0.4 l2.82 -0.02 c0.4 -0.04 0.52 -0.02 0.48 -0.4 c-0.04 -0.58 0.04 -1.18 -0.04 -1.76 c-0.04 -0.32 -0.12 -0.38 -0.48 -0.38 c-0.6 0.02 -0.74 0.02 -1.34 0.06 c-0.6 0.02 -3.02 0.02 -3.6 0.02 c-0.82 0 -0.9 -0.06 -0.92 0.96 c-0.02 0.8 -0.02 1.62 -0.02 2.44 c0 1.4 -0.08 6.42 -0.02 7.54 z M81.60000000000001 14.84 c-0.06 -2.28 -0.04 -4.7 -0.02 -6.96 c0 -0.7 -0.04 -1.46 -0.04 -2.16 c0 -0.76 -0.3 -0.72 -0.7 -0.74 c-0.58 -0.02 -0.84 -0.02 -1.42 -0.02 c-0.38 -0.02 -0.54 0.08 -0.54 0.46 c0 1.96 -0.06 7.5 -0.04 8.3 s0.1 4.44 0.06 5.24 c-0.02 0.28 0 0.56 0.02 0.84 c0.02 0.1 0.08 0.2 0.24 0.2 c0.66 -0.04 1.28 -0.04 1.94 -0.06 c0.24 -0.02 0.44 -0.08 0.54 -0.34 c0.02 -0.14 -0.04 -3.8 -0.04 -4.76 z M86.18 17.82 c0.02 0.62 0.02 1.24 0.04 1.86 c0 0.28 0.02 0.32 0.3 0.32 l1.8 0 c0.38 0 0.3 -0.64 0.28 -0.98 l0.06 -11.2 c0 -0.3 0.1 -0.4 0.5 -0.4 l1.76 0 c0.42 0 0.32 -0.72 0.32 -1.22 c0 -0.44 0.16 -1.2 -0.32 -1.2 c-0.34 0 -3.6 0 -4.94 0.02 c-0.66 0 -1.2 -0.02 -1.86 -0.02 c-0.5 0 -0.48 0.4 -0.48 1.28 c0 0.56 -0.02 1.12 0.46 1.12 c0.28 0 1.42 0 1.74 0.02 c0.2 0 0.34 0.06 0.38 0.28 c0 0.06 0.02 0.12 0.02 0.18 c0 1.44 -0.1 8.14 -0.06 9.94 z"/></g><g id="SvgjsG7984"  transform="matrix(1.8002327536445932,0,0,1.8002327536445932,97.1997672463554,8.49825434766555)" fill="#111111"><path d="M1.26 20 c-0.14 0 -0.26 -0.12 -0.26 -0.26 l0 -11.98 c0 -0.14 0.12 -0.26 0.26 -0.26 l8.26 0 c0.08 0 0.14 0.02 0.18 0.08 c0.06 0.04 0.08 0.1 0.08 0.18 l-0.02 2.24 c0 0.14 -0.12 0.26 -0.26 0.26 l-5.4 0 l0 2.42 l3.4 0 c0.14 0 0.26 0.12 0.26 0.26 l0 2.26 c0 0.14 -0.12 0.26 -0.26 0.26 l-3.4 0 l0 4.28 c0 0.14 -0.1 0.26 -0.24 0.26 l-2.6 0 z"/></g><g id="SvgjsG7985" transform="matrix(0.2812864106778612,0,0,0.2812864106778612,117.18713589322138,19.187135893221388)" fill="#111111"><path xmlns="http://www.w3.org/2000/svg" d="M50,10L10,90h80L50,10z M50,24.909L72.546,70H42.36l3.333-6.667h16.064L50,39.814L31.575,76.667h44.304l3.333,6.666H20.788  L50,24.909z"/></g><g id="SvgjsG7986"  transform="matrix(1.4411085773535701,0,0,1.4411085773535701,148.00000068717412,15.334872142565619)" fill="#111111"><path d="M4.52 4.880000000000001 l5.8 0 c0.82 0 1.48 0.66 1.48 1.48 c0 0.8 -0.66 1.46 -1.48 1.46 l-5.82 0 c-0.86 0 -1.56 0.7 -1.56 1.58 c0 0.86 0.7 1.56 1.56 1.56 l4 0 c2.5 0 4.52 2.02 4.52 4.52 c0 0.34 -0.28 0.6 -0.6 0.6 c-0.34 0 -0.62 -0.26 -0.62 -0.6 c0 -1.82 -1.48 -3.3 -3.3 -3.3 l-4 0 c-1.54 0 -2.78 -1.24 -2.78 -2.78 s1.24 -2.8 2.78 -2.8 l5.82 0 c0.14 0 0.26 -0.1 0.26 -0.24 s-0.12 -0.26 -0.26 -0.26 l-5.8 0 c-1.82 0 -3.3 1.48 -3.3 3.3 c0 0.34 -0.28 0.6 -0.62 0.6 c-0.32 0 -0.6 -0.26 -0.6 -0.6 c0 -2.5 2.02 -4.52 4.52 -4.52 z M4.52 12.7 l4 0 c1.54 0 2.78 1.26 2.78 2.8 s-1.24 2.78 -2.78 2.78 l-6.4 0 c-0.14 0 -0.26 0.12 -0.26 0.26 s0.12 0.24 0.26 0.24 l6.38 0 c0.34 0 0.6 0.28 0.6 0.62 c0 0.32 -0.26 0.6 -0.6 0.6 l-6.38 0 c-0.82 0 -1.48 -0.66 -1.48 -1.46 s0.62 -1.48 1.42 -1.48 l6.46 0 c0.86 0 1.56 -0.7 1.56 -1.56 c0 -0.88 -0.7 -1.58 -1.56 -1.58 l-4 0 c-0.34 0 -0.6 -0.28 -0.6 -0.6 c0 -0.34 0.26 -0.62 0.6 -0.62 z M15.22 4.880000000000001 c0.34 0 0.62 0.28 0.62 0.62 l0 13.9 c0 0.34 -0.28 0.6 -0.62 0.6 c-0.32 0 -0.6 -0.26 -0.6 -0.6 l0 -13.9 c0 -0.34 0.28 -0.62 0.6 -0.62 z M27.54 4.880000000000001 c0.34 0 0.6 0.28 0.6 0.62 l0 5.78 c0 0.96 -0.76 1.74 -1.72 1.78 l0 6.34 c0 0.34 -0.28 0.6 -0.6 0.6 c-0.34 0 -0.62 -0.26 -0.62 -0.6 l0 -6.34 l-7.08 0 c-0.3 0 -0.56 0.24 -0.56 0.56 l0 5.78 c0 0.34 -0.26 0.6 -0.6 0.6 s-0.62 -0.26 -0.62 -0.6 l0 -5.78 c0 -0.98 0.8 -1.78 1.78 -1.78 l7.08 0 l0 -6.34 c0 -0.34 0.28 -0.62 0.62 -0.62 c0.32 0 0.6 0.28 0.6 0.62 l0 6.34 c0.28 -0.04 0.5 -0.28 0.5 -0.56 l0 -5.78 c0 -0.34 0.28 -0.62 0.62 -0.62 z M37.46 6.380000000000001 c1.62 0 3.14 0.62 4.28 1.76 c1.14 1.16 1.76 2.68 1.76 4.3 c0 0.32 -0.26 0.6 -0.6 0.6 c-0.32 0 -0.6 -0.28 -0.6 -0.6 c0 -1.3 -0.5 -2.52 -1.42 -3.44 c-0.92 -0.9 -2.14 -1.42 -3.42 -1.42 c-1.3 0 -2.52 0.52 -3.44 1.42 c-0.92 0.92 -1.42 2.14 -1.42 3.44 c0 0.8 -0.66 1.48 -1.48 1.48 s-1.48 -0.68 -1.48 -1.48 c0 -2.1 0.82 -4.06 2.28 -5.52 c3.06 -3.06 8 -3.06 11.06 0 c1.48 1.46 2.28 3.42 2.28 5.52 c0 2.08 -0.8 4.04 -2.28 5.52 s-3.44 2.28 -5.52 2.28 c-0.34 0 -0.62 -0.26 -0.62 -0.6 s0.28 -0.6 0.62 -0.6 c1.76 0 3.42 -0.7 4.66 -1.94 s1.94 -2.9 1.94 -4.66 s-0.7 -3.42 -1.94 -4.68 c-2.58 -2.56 -6.76 -2.56 -9.34 0 c-1.24 1.26 -1.92 2.92 -1.92 4.68 c0 0.18 0.1 0.3 0.28 0.3 c0.16 0 0.26 -0.1 0.26 -0.3 c0 -1.62 0.62 -3.14 1.76 -4.3 c1.14 -1.14 2.68 -1.76 4.3 -1.76 z M48.6 5.359999999999999 c1.62 -0.94 3.72 -0.4 4.78 1.24 l7.18 11.18 c0.42 0.7 0.18 1.64 -0.52 2.04 c-0.62 0.34 -1.5 0.28 -2 -0.54 l-7.14 -11.08 c-0.14 -0.22 -0.48 -0.5 -0.82 -0.3 c-0.16 0.1 -0.28 0.28 -0.28 0.48 l0 11.02 c0 0.32 -0.28 0.6 -0.6 0.6 c-0.34 0 -0.62 -0.28 -0.62 -0.6 l0 -11.02 c0 -0.64 0.34 -1.22 0.9 -1.54 c0.94 -0.54 1.96 -0.04 2.44 0.7 l7.14 11.08 c0.08 0.14 0.2 0.26 0.38 0.16 s0.14 -0.28 0.06 -0.38 l-7.14 -11.14 c-0.7 -1.1 -2.06 -1.48 -3.14 -0.86 c-0.7 0.42 -1.14 1.16 -1.14 1.96 l0 11.04 c0 0.32 -0.28 0.6 -0.62 0.6 c-0.32 0 -0.6 -0.28 -0.6 -0.6 l0 -10.96 c-0.02 -1.26 0.64 -2.46 1.74 -3.08 z M59.3 4.9 c0.82 0 1.48 0.66 1.48 1.46 l0 8.58 c0 0.34 -0.28 0.6 -0.6 0.6 c-0.34 0 -0.62 -0.26 -0.62 -0.6 l0 -8.58 c0 -0.14 -0.12 -0.26 -0.26 -0.26 s-0.24 0.12 -0.24 0.26 l0 5.74 c0 0.34 -0.28 0.62 -0.62 0.62 s-0.6 -0.28 -0.6 -0.62 l0 -5.74 c0 -0.8 0.66 -1.46 1.46 -1.46 z M76.41999999999999 4.880000000000001 c1.46 0 2.76 0.9 3.28 2.26 l5.02 12.02 c0.14 0.32 -0.02 0.66 -0.32 0.8 c-0.32 0.12 -0.68 -0.02 -0.8 -0.34 l-5.06 -12.1 c-0.36 -0.86 -1.2 -1.42 -2.12 -1.42 c-0.94 0 -1.76 0.56 -2.12 1.42 l-4.56 10.9 c-0.06 0.14 -0.02 0.3 0.12 0.36 s0.28 0 0.34 -0.16 l4.56 -10.88 c0.28 -0.66 0.94 -1.08 1.66 -1.08 s1.38 0.42 1.66 1.1 l2.36 5.62 c0.22 0.52 -0.1 0.84 -0.58 0.84 l-4.8 0 c-0.34 0 -0.62 -0.28 -0.62 -0.62 s0.28 -0.6 0.62 -0.6 l3.9 0 l-2 -4.76 c-0.08 -0.22 -0.28 -0.38 -0.54 -0.38 s-0.46 0.16 -0.54 0.38 l-4.56 10.84 c-0.3 0.76 -1.16 1.12 -1.92 0.82 c-0.76 -0.32 -1.12 -1.18 -0.82 -1.92 l4.56 -10.84 c0.52 -1.36 1.82 -2.26 3.28 -2.26 z M92.08 4.9 c4.18 0 7.56 3.38 7.56 7.54 c0 4.18 -3.38 7.56 -7.56 7.56 l-4.36 0 c-1.18 0 -2.14 -0.96 -2.14 -2.14 l0 -10.68 c0 -0.32 0.28 -0.6 0.6 -0.6 c0.34 0 0.62 0.28 0.62 0.6 l0 10.68 c0 0.52 0.4 0.92 0.92 0.92 l4.36 0 c3.5 0 6.34 -2.84 6.34 -6.34 c0 -3.48 -2.84 -6.34 -6.34 -6.34 c-0.32 0 -0.6 -0.26 -0.6 -0.6 s0.28 -0.6 0.6 -0.6 z M87.88 6.58 l4.2 0 c3.24 0 5.88 2.64 5.88 5.86 c0 3.24 -2.64 5.88 -5.88 5.88 c-0.32 0 -0.6 -0.28 -0.6 -0.62 s0.28 -0.6 0.6 -0.6 c2.56 0 4.66 -2.1 4.66 -4.66 s-2.1 -4.64 -4.66 -4.64 l-3.58 0 l0 9.9 c0 0.34 -0.28 0.62 -0.62 0.62 s-0.6 -0.28 -0.6 -0.62 l0 -10.52 c0 -0.32 0.26 -0.6 0.6 -0.6 z M107.74 4.9 c4.18 0 7.56 3.38 7.56 7.54 c0 4.18 -3.38 7.56 -7.56 7.56 l-4.36 0 c-1.18 0 -2.14 -0.96 -2.14 -2.14 l0 -10.68 c0 -0.32 0.28 -0.6 0.6 -0.6 c0.34 0 0.62 0.28 0.62 0.6 l0 10.68 c0 0.52 0.4 0.92 0.92 0.92 l4.36 0 c3.5 0 6.34 -2.84 6.34 -6.34 c0 -3.48 -2.84 -6.34 -6.34 -6.34 c-0.32 0 -0.6 -0.26 -0.6 -0.6 s0.28 -0.6 0.6 -0.6 z M103.53999999999999 6.58 l4.2 0 c3.24 0 5.88 2.64 5.88 5.86 c0 3.24 -2.64 5.88 -5.88 5.88 c-0.32 0 -0.6 -0.28 -0.6 -0.62 s0.28 -0.6 0.6 -0.6 c2.56 0 4.66 -2.1 4.66 -4.66 s-2.1 -4.64 -4.66 -4.64 l-3.58 0 l0 9.9 c0 0.34 -0.28 0.62 -0.62 0.62 s-0.6 -0.28 -0.6 -0.62 l0 -10.52 c0 -0.32 0.26 -0.6 0.6 -0.6 z M117.49999999999999 4.880000000000001 l7.28 0 c2.48 0.02 4.48 2.06 4.48 4.54 c0 2.32 -1.78 4.24 -4.04 4.48 l3.62 3.6 c0.54 0.54 0.54 1.54 0 2.08 s-1.48 0.58 -2.04 0.02 c-0.52 -0.54 -2.52 -2.52 -2.52 -2.52 c-0.24 -0.24 -0.24 -0.62 0 -0.86 s0.62 -0.24 0.86 0 l2.48 2.48 c0.1 0.1 0.26 0.12 0.36 0.02 s0.12 -0.24 0 -0.36 l-4.64 -4.62 c-0.12 -0.12 -0.18 -0.26 -0.18 -0.42 c0 -0.34 0.28 -0.62 0.62 -0.62 l0.96 0 c1.82 0 3.32 -1.48 3.32 -3.3 s-1.5 -3.3 -3.32 -3.3 l-6.62 0 l0 3.3 c0 0.34 -0.28 0.6 -0.62 0.6 s-0.6 -0.26 -0.6 -0.6 l0 -3.92 c0 -0.32 0.26 -0.6 0.6 -0.6 z M124.75999999999999 6.6 c1.54 0 2.8 1.26 2.8 2.8 s-1.26 2.78 -2.8 2.78 l-3.34 0 c-1.82 0 -3.3 1.48 -3.3 3.3 l0 3.92 c0 0.32 -0.28 0.6 -0.62 0.6 s-0.6 -0.28 -0.6 -0.6 l0 -3.92 c0 -2.5 2.02 -4.52 4.52 -4.52 l3.34 0 c0.88 0 1.58 -0.7 1.58 -1.56 c0 -0.88 -0.7 -1.58 -1.58 -1.58 c-0.34 0 -0.6 -0.26 -0.6 -0.6 s0.26 -0.62 0.6 -0.62 z M134.35999999999999 4.880000000000001 l7.42 0 c0.8 0 1.46 0.66 1.46 1.46 s-0.62 1.48 -1.42 1.48 l-7.46 0 c-0.3 0 -0.56 0.24 -0.56 0.56 c0 0.3 0.26 0.56 0.56 0.56 c0.34 0 0.62 0.26 0.62 0.6 s-0.28 0.62 -0.62 0.62 c-0.98 0 -1.76 -0.8 -1.76 -1.78 s0.78 -1.78 1.76 -1.78 l7.42 0 c0.14 0 0.24 -0.12 0.24 -0.26 s-0.1 -0.24 -0.24 -0.24 l-7.42 0 c-1.26 0 -2.28 1.02 -2.28 2.28 s1.02 2.28 2.28 2.28 l5.38 0 c0.98 0 1.78 0.8 1.78 1.8 c0 0.98 -0.8 1.76 -1.78 1.76 l-5.38 0 c-1.26 0 -2.28 1.02 -2.28 2.28 s1.02 2.28 2.28 2.28 l8.26 0 c0.34 0 0.62 0.28 0.62 0.62 s-0.28 0.6 -0.62 0.6 l-8.26 0 c-1.94 0 -3.5 -1.56 -3.5 -3.5 c0 -1.92 1.56 -3.5 3.5 -3.5 l5.38 0 c0.32 0 0.56 -0.24 0.56 -0.54 c0 -0.34 -0.24 -0.58 -0.56 -0.58 l-5.38 0 c-1.92 0 -3.5 -1.58 -3.5 -3.5 c0 -1.94 1.58 -3.5 3.5 -3.5 z M134.35999999999999 14.74 l5.38 0 c0.34 0 0.62 0.26 0.62 0.6 s-0.28 0.62 -0.62 0.62 l-5.38 0 c-0.3 0 -0.56 0.24 -0.56 0.54 c0 0.32 0.26 0.56 0.56 0.56 c0.34 0 0.6 0.28 0.6 0.62 c0 0.32 -0.26 0.6 -0.6 0.6 c-0.98 0 -1.78 -0.8 -1.78 -1.78 s0.8 -1.76 1.78 -1.76 z M149.35999999999999 4.880000000000001 l5.8 0 c0.82 0 1.48 0.66 1.48 1.48 c0 0.8 -0.66 1.46 -1.48 1.46 l-5.82 0 c-0.86 0 -1.56 0.7 -1.56 1.58 c0 0.86 0.7 1.56 1.56 1.56 l4 0 c2.5 0 4.52 2.02 4.52 4.52 c0 0.34 -0.28 0.6 -0.6 0.6 c-0.34 0 -0.62 -0.26 -0.62 -0.6 c0 -1.82 -1.48 -3.3 -3.3 -3.3 l-4 0 c-1.54 0 -2.78 -1.24 -2.78 -2.78 s1.24 -2.8 2.78 -2.8 l5.82 0 c0.14 0 0.26 -0.1 0.26 -0.24 s-0.12 -0.26 -0.26 -0.26 l-5.8 0 c-1.82 0 -3.3 1.48 -3.3 3.3 c0 0.34 -0.28 0.6 -0.62 0.6 c-0.32 0 -0.6 -0.26 -0.6 -0.6 c0 -2.5 2.02 -4.52 4.52 -4.52 z M149.35999999999999 12.7 l4 0 c1.54 0 2.78 1.26 2.78 2.8 s-1.24 2.78 -2.78 2.78 l-6.4 0 c-0.14 0 -0.26 0.12 -0.26 0.26 s0.12 0.24 0.26 0.24 l6.38 0 c0.34 0 0.6 0.28 0.6 0.62 c0 0.32 -0.26 0.6 -0.6 0.6 l-6.38 0 c-0.82 0 -1.48 -0.66 -1.48 -1.46 s0.62 -1.48 1.42 -1.48 l6.46 0 c0.86 0 1.56 -0.7 1.56 -1.56 c0 -0.88 -0.7 -1.58 -1.56 -1.58 l-4 0 c-0.34 0 -0.6 -0.28 -0.6 -0.6 c0 -0.34 0.26 -0.62 0.6 -0.62 z M163.98 4.880000000000001 l5.8 0 c0.82 0 1.48 0.66 1.48 1.48 c0 0.8 -0.66 1.46 -1.48 1.46 l-5.82 0 c-0.86 0 -1.56 0.7 -1.56 1.58 c0 0.86 0.7 1.56 1.56 1.56 l4 0 c2.5 0 4.52 2.02 4.52 4.52 c0 0.34 -0.28 0.6 -0.6 0.6 c-0.34 0 -0.62 -0.26 -0.62 -0.6 c0 -1.82 -1.48 -3.3 -3.3 -3.3 l-4 0 c-1.54 0 -2.78 -1.24 -2.78 -2.78 s1.24 -2.8 2.78 -2.8 l5.82 0 c0.14 0 0.26 -0.1 0.26 -0.24 s-0.12 -0.26 -0.26 -0.26 l-5.8 0 c-1.82 0 -3.3 1.48 -3.3 3.3 c0 0.34 -0.28 0.6 -0.62 0.6 c-0.32 0 -0.6 -0.26 -0.6 -0.6 c0 -2.5 2.02 -4.52 4.52 -4.52 z M163.98 12.7 l4 0 c1.54 0 2.78 1.26 2.78 2.8 s-1.24 2.78 -2.78 2.78 l-6.4 0 c-0.14 0 -0.26 0.12 -0.26 0.26 s0.12 0.24 0.26 0.24 l6.38 0 c0.34 0 0.6 0.28 0.6 0.62 c0 0.32 -0.26 0.6 -0.6 0.6 l-6.38 0 c-0.82 0 -1.48 -0.66 -1.48 -1.46 s0.62 -1.48 1.42 -1.48 l6.46 0 c0.86 0 1.56 -0.7 1.56 -1.56 c0 -0.88 -0.7 -1.58 -1.56 -1.58 l-4 0 c-0.34 0 -0.6 -0.28 -0.6 -0.6 c0 -0.34 0.26 -0.62 0.6 -0.62 z"/></g>
			</g>
		</svg>